<?xml version="1.0" encoding="UTF-8"?>
<svg version="1.1" xmlns="http://www.w3.org/2000/svg" width="264" height="234">
<path d="M0 0 C87.12 0 174.24 0 264 0 C264 77.22 264 154.44 264 234 C176.88 234 89.76 234 0 234 C0 156.78 0 79.56 0 0 Z " fill="#FEFEFE" transform="translate(0,0)"/>
<path d="M0 0 C4.96606391 4.39384255 7.59324312 8.86887544 8.25 15.5390625 C8.53082662 21.91031639 7.87432457 26.82290547 4 32 C-0.26442137 36.5372635 -4.51406203 39.58649563 -10.83203125 40.3359375 C-18.74892993 40.43969764 -24.04620932 39.60930198 -29.97265625 34.19921875 C-34.35351959 29.56647825 -36.95192683 25.42273161 -37.0234375 18.84375 C-36.51830675 11.08068797 -33.82958723 5.40419736 -28.125 0.125 C-18.86548143 -7.37486836 -9.51652286 -6.33373929 0 0 Z " fill="#000000" transform="translate(116,132)"/>
<path d="M0 0 C5.32221807 3.8735062 8.07454789 8.05751005 9.625 14.453125 C10.6201526 21.21186977 9.47021084 26.49550169 5.59765625 32.140625 C1.65914555 36.7243196 -3.24423509 40.68449148 -9.41796875 41.203125 C-16.27872716 41.31924503 -22.32049174 41.1610321 -27.71875 36.5234375 C-32.5505993 31.33630516 -35.05580115 25.64239805 -35.4375 18.5625 C-35.15984909 11.85260312 -32.68639889 6.19992346 -27.75 1.625 C-18.87450788 -5.20230163 -9.62652853 -5.73169632 0 0 Z " fill="#000000" transform="translate(178,131)"/>
<path d="M0 0 C6.04082459 3.45885924 9.61624199 8.16998397 12.6875 14.3125 C13.41990379 21.44443194 13.08566557 27.47291882 8.6875 33.3125 C4.34349897 38.08053584 0.23182999 41.39399755 -6.3125 42.3125 C-13.43099907 42.38987499 -19.67307963 40.55668919 -25.0390625 35.7734375 C-29.39764086 31.07132587 -32.39742955 26.18528743 -32.25390625 19.640625 C-31.35970928 12.96641255 -29.18512481 8.00793845 -24.3125 3.3125 C-17.10095629 -1.94337084 -8.29714347 -3.91196118 0 0 Z " fill="#000000" transform="translate(111.3125,66.6875)"/>
<path d="M0 0 C6.02161876 3.0808282 9.65672209 7.52208567 12.1875 13.75 C14.05652287 20.23075385 12.54717174 25.95258268 9.375 31.75 C4.32379497 37.95576618 0.14947831 41.48821413 -7.82421875 42.7578125 C-14.51510595 43.15216734 -19.4743509 40.39502018 -24.5 36.1875 C-29.06071028 30.76395264 -32.76532275 26.19248303 -32.29296875 18.80078125 C-30.69129363 10.92262315 -26.47222217 4.84751736 -19.8125 0.4375 C-13.82374175 -3.15080556 -6.33185992 -2.50054807 0 0 Z " fill="#000000" transform="translate(174.8125,66.5625)"/>
<path d="M0 0 C3.12694762 2.51515352 5.88144669 5.08506341 7 9 C6.70329457 15.23081408 5.60869013 19.09030716 1.375 23.8125 C-2.35811193 25.67905597 -5.91135797 25.5202394 -10 25 C-14.11853309 23.44410972 -16.29538431 20.95491268 -18.33203125 17.03125 C-19.58362758 13.22522607 -19.22511691 9.77449314 -18 6 C-13.20005739 -0.26659174 -7.52432569 -2.37610285 0 0 Z " fill="#000000" transform="translate(111,21)"/>
<path d="M0 0 C3.02518869 2.61266296 5.8839658 5.09388029 7 9 C6.89500687 15.50957418 5.64684911 18.46121715 1 23 C-1.74819384 25.10694861 -2.9039078 25.00524139 -6.4375 24.8125 C-11.43954125 23.67168358 -13.93812013 22.1736567 -17.375 18.375 C-19.52282491 13.91413288 -19.37268301 10.708824 -18 6 C-15.55642879 2.17173844 -13.097206 -0.31982508 -8.6875 -1.75 C-5.1991651 -2.07449627 -3.18465315 -1.45963269 0 0 Z " fill="#000000" transform="translate(54,135)"/>
<path d="M0 0 C3.18110914 1.87678193 5.47541787 4.15610701 7.4375 7.3125 C8.4184984 11.99949237 8.18364106 15.86616957 5.87109375 20.03515625 C3.34878246 23.38220148 1.19470585 25.37623293 -3 26.125 C-7.01046918 26.27807134 -9.65590654 25.28006372 -13 23 C-16.05819964 19.85914632 -17.78931174 17.42445345 -18 13 C-16.85450774 6.58524336 -14.29933227 3.41951033 -9.125 -0.375 C-5.74496055 -1.36912925 -3.39131751 -0.87706487 0 0 Z " fill="#000000" transform="translate(224,134)"/>
<path d="M0 0 C3.12948288 2.70273522 4.46485486 4.4439678 5.75 8.375 C5.89477333 13.28764178 4.92976886 17.53734793 1.75 21.375 C-2.57047226 24.46105161 -6.03836571 24.8046639 -11.1328125 24.015625 C-15.43716048 22.71320236 -17.46008282 19.7394024 -19.625 16 C-20.60013621 11.90442792 -20.44795698 8.33285507 -18.203125 4.6640625 C-13.19092529 -1.6785359 -7.57516761 -3.7875838 0 0 Z " fill="#000000" transform="translate(112.25,192.625)"/>
<path d="M0 0 C3.82001478 2.05693103 6.95400772 4.12338304 9 8 C10.07954294 11.97506121 10.46719536 14.91807391 8.8125 18.75 C8.214375 19.4925 7.61625 20.235 7 21 C6.46375 21.7425 5.9275 22.485 5.375 23.25 C1.79739834 25.88612754 -1.60661031 26.30375882 -6 26 C-10.02082645 24.75747973 -12.51341933 22.66904842 -15 19.25 C-16.58792513 14.08924333 -15.9235755 10.07804488 -13.75 5.1875 C-9.87687955 0.34609943 -6.10703347 -0.74998657 0 0 Z " fill="#000000" transform="translate(51,191)"/>
<path d="M0 0 C2.875 1.3125 2.875 1.3125 5 3 C5.5775 3.391875 6.155 3.78375 6.75 4.1875 C8.85071812 7.23354128 9.21145599 10.39884047 9 14 C7.7661678 18.10303961 5.97250884 21.11084906 2.8125 24 C-1.22018328 25.43384294 -4.77731066 25.79547141 -9 25 C-12.32312872 23.28915195 -14.42391319 20.9017011 -16.4375 17.75 C-17.28469439 13.60816074 -17.31389569 10.04821915 -16 6 C-11.98290281 0.15911684 -6.7947724 -1.30275711 0 0 Z " fill="#000000" transform="translate(52,21)"/>
<path d="M0 0 C4.29696335 3.38271583 6.66927091 6.46441031 7.375 11.875 C6.77141381 16.90488491 4.1135774 19.75915661 0.8125 23.4375 C-2.72297569 25.40165316 -4.85456424 25.32896085 -8.78125 24.66796875 C-12.60564563 23.51661021 -14.31756742 22.00955851 -17 19 C-18.76782879 15.02238521 -19.09453163 12.68535429 -18.5 8.375 C-14.8464293 0.15446593 -8.38330404 -2.13208598 0 0 Z " fill="#000000" transform="translate(168,192)"/>
<path d="M0 0 C3.12100202 0.74281046 5.32782668 1.57950293 7.3359375 4.1484375 C9.56074544 8.46061351 10.63837492 11.75370452 9.72265625 16.58984375 C8.32217871 20.44911425 5.74202221 23.63094202 2.03515625 25.484375 C-2.57684589 26.04703926 -6.09219084 25.88838098 -10.33984375 23.921875 C-13.59181944 20.90218329 -14.81959181 18.77906978 -15.96484375 14.484375 C-15.75575716 9.90189395 -14.49122995 7.10524078 -11.52734375 3.609375 C-7.27026364 0.07911344 -5.5442007 -0.7264078 0 0 Z " fill="#000000" transform="translate(164.96484375,20.515625)"/>
<path d="M0 0 C3.28812724 2.84378572 4.99885967 5.86814291 6.3125 10 C6.51311137 15.7174241 4.47697759 18.57160441 0.78515625 22.6171875 C-1.52038668 24.78207397 -2.71431596 25.00257846 -5.9375 25.3125 C-11.03376632 24.88781114 -13.95038199 22.95270306 -17.32421875 19.16015625 C-19.74897076 15.31807068 -19.53175789 11.36869956 -18.6875 7 C-14.51072465 -0.3027896 -8.21136308 -3.05539091 0 0 Z " fill="#000000" transform="translate(225.6875,192)"/>
<path d="M0 0 C3.3210053 3.03222223 5.20709351 5.59683843 6 10 C6 15.57158101 4.5379888 18.33018359 0.8125 22.375 C-2.86792359 24.50146696 -5.90451611 24.7460464 -10 24 C-13.58203695 22.86058467 -16.0983017 21.38560973 -18.171875 18.19921875 C-19.78549077 14.55442873 -20.04274643 12.31525496 -19.5 8.3125 C-17.32237924 3.50358749 -14.84388321 0.9219416 -10.125 -1.4375 C-6.036979 -2.17334378 -3.80530636 -1.66049732 0 0 Z " fill="#000000" transform="translate(226,22)"/>
<path d="M0 0 C3.96616256 2.08391592 6.41137135 4.1247851 8.09375 8.28125 C8.80886694 12.39317241 8.11066971 14.6588571 5.84375 18.03125 C3.81351419 20.59307959 2.34582882 22.44500116 -0.90625 23.28125 C-5.64304066 23.7396491 -7.93293629 23.75872465 -12.21875 21.65625 C-15.23869818 18.98745858 -16.6100088 17.09372412 -17.90625 13.28125 C-17.90625 8.02120855 -15.4702277 4.02033643 -11.90625 0.28125 C-7.83022803 -1.07742399 -4.11874159 -1.55296814 0 0 Z " fill="#000000" transform="translate(223.90625,78.71875)"/>
<path d="M0 0 C3.8026029 2.0050088 5.61790841 3.42686262 8 7 C8.76768116 11.6864257 8.40885085 15.19690011 6.25 19.4375 C2.83261414 23.32952279 1.31072854 23.8731553 -3.875 24.375 C-8.21917437 24.24556464 -10.70927549 22.90808213 -14 20 C-16.38621552 16.53613876 -17.01149219 14.65505456 -16.9375 10.4375 C-14.52330916 1.58546693 -8.56646674 -1.21333915 0 0 Z " fill="#000000" transform="translate(52,78)"/>
<path d="M0 0 C2.31 0.33 4.62 0.66 7 1 C7.33 2.98 7.66 4.96 8 7 C5.75 8.625 5.75 8.625 3 10 C0.75 9.5 0.75 9.5 -1 8 C-1.875 5.5625 -1.875 5.5625 -2 3 C-1.34 2.01 -0.68 1.02 0 0 Z " fill="#010101" transform="translate(2,141)"/>
<path d="M0 0 C2.56695636 0.39491636 4.67123994 0.83561997 7 2 C6.67 4.31 6.34 6.62 6 9 C3.75 9.75 3.75 9.75 1 10 C-1.3125 8.0625 -1.3125 8.0625 -3 6 C-1.125 1.125 -1.125 1.125 0 0 Z " fill="#010101" transform="translate(103,224)"/>
<path d="M0 0 C3.0625 0.1875 3.0625 0.1875 5.0625 2.1875 C5.375 4.6875 5.375 4.6875 5.0625 7.1875 C2.0625 9.1875 2.0625 9.1875 -0.5 8.9375 C-2.9375 8.1875 -2.9375 8.1875 -4.9375 6.1875 C-4.21574268 0.26908996 -4.21574268 0.26908996 0 0 Z " fill="#010101" transform="translate(161.9375,224.8125)"/>
<path d="M0 0 C0.7425 0.53625 1.485 1.0725 2.25 1.625 C1.92 3.605 1.59 5.585 1.25 7.625 C-4.18440487 8.95341008 -4.18440487 8.95341008 -6.6875 7.5 C-7.75 5.625 -7.75 5.625 -7.6875 3.0625 C-6.75 0.625 -6.75 0.625 -5 -0.875 C-2.75 -1.375 -2.75 -1.375 0 0 Z " fill="#010101" transform="translate(261.75,86.375)"/>
<path d="M0 0 C6.72 0.72 6.72 0.72 8 2 C8.25 4.4375 8.25 4.4375 8 7 C5 9 5 9 2.4375 8.75 C0 8 0 8 -2 6 C-1.44444444 1.44444444 -1.44444444 1.44444444 0 0 Z " fill="#000000" transform="translate(256,143)"/>
<path d="M0 0 C2.6875 1.4375 2.6875 1.4375 5 3 C4.67 4.98 4.34 6.96 4 9 C2.02 9.33 0.04 9.66 -2 10 C-3.625 8.3125 -3.625 8.3125 -5 6 C-4.375 3.3125 -4.375 3.3125 -3 1 C-2.01 0.67 -1.02 0.34 0 0 Z " fill="#010101" transform="translate(6,85)"/>
<path d="M0 0 C2.4375 0.6875 2.4375 0.6875 5 2 C6 4.4375 6 4.4375 6 7 C4.875 8.875 4.875 8.875 3 10 C0.4375 10 0.4375 10 -2 9 C-3.3125 6.4375 -3.3125 6.4375 -4 4 C-2.68 2.68 -1.36 1.36 0 0 Z " fill="#010101" transform="translate(161,0)"/>
<path d="M0 0 C5.875 0.875 5.875 0.875 7 2 C7.1875 4.4375 7.1875 4.4375 7 7 C5 9 5 9 2.5625 9.4375 C0 9 0 9 -1.8125 6.5 C-2.204375 5.675 -2.59625 4.85 -3 4 C-2.01 2.68 -1.02 1.36 0 0 Z " fill="#010101" transform="translate(103,0)"/>
</svg>
