<svg width="245" height="49" viewBox="0 0 245 49" fill="none" xmlns="http://www.w3.org/2000/svg">
<g id="Group 115">
<path id="Star 8" d="M23.1294 4.2184C23.5608 2.89063 25.4392 2.89063 25.8706 4.2184L29.677 15.9333C29.87 16.5271 30.4233 16.9291 31.0477 16.9291L43.3654 16.9291C44.7615 16.9291 45.342 18.7156 44.2125 19.5362L34.2472 26.7764C33.7421 27.1434 33.5308 27.7939 33.7237 28.3877L37.5301 40.1025C37.9615 41.4303 36.4418 42.5344 35.3124 41.7138L25.3471 34.4736C24.842 34.1066 24.158 34.1066 23.6529 34.4736L13.6876 41.7138C12.5582 42.5344 11.0385 41.4303 11.4699 40.1025L15.2763 28.3877C15.4692 27.7939 15.2579 27.1434 14.7528 26.7764L4.7875 19.5362C3.65803 18.7156 4.2385 16.9291 5.6346 16.9291L17.9523 16.9291C18.5767 16.9291 19.13 16.5271 19.323 15.9333L23.1294 4.2184Z" fill="#EA760C"/>
<path id="Star 9" d="M72.1294 4.2184C72.5608 2.89063 74.4392 2.89063 74.8706 4.2184L78.677 15.9333C78.87 16.5271 79.4233 16.9291 80.0477 16.9291L92.3654 16.9291C93.7615 16.9291 94.342 18.7156 93.2125 19.5362L83.2472 26.7764C82.7421 27.1434 82.5308 27.7939 82.7237 28.3877L86.5301 40.1025C86.9615 41.4303 85.4418 42.5344 84.3124 41.7138L74.3471 34.4736C73.842 34.1066 73.158 34.1066 72.6529 34.4736L62.6876 41.7138C61.5582 42.5344 60.0385 41.4303 60.4699 40.1025L64.2763 28.3877C64.4692 27.7939 64.2579 27.1434 63.7528 26.7764L53.7875 19.5362C52.658 18.7156 53.2385 16.9291 54.6346 16.9291L66.9523 16.9291C67.5767 16.9291 68.13 16.5271 68.323 15.9333L72.1294 4.2184Z" fill="#EA760C"/>
<path id="Star 10" d="M121.129 4.2184C121.561 2.89063 123.439 2.89063 123.871 4.2184L127.677 15.9333C127.87 16.5271 128.423 16.9291 129.048 16.9291L141.365 16.9291C142.762 16.9291 143.342 18.7156 142.213 19.5362L132.247 26.7764C131.742 27.1434 131.531 27.7939 131.724 28.3877L135.53 40.1025C135.962 41.4303 134.442 42.5344 133.312 41.7138L123.347 34.4736C122.842 34.1066 122.158 34.1066 121.653 34.4736L111.688 41.7138C110.558 42.5344 109.038 41.4303 109.47 40.1025L113.276 28.3877C113.469 27.7939 113.258 27.1434 112.753 26.7764L102.787 19.5362C101.658 18.7156 102.238 16.9291 103.635 16.9291L115.952 16.9291C116.577 16.9291 117.13 16.5271 117.323 15.9333L121.129 4.2184Z" fill="#EA760C"/>
<path id="Star 11" d="M170.129 4.2184C170.561 2.89063 172.439 2.89063 172.871 4.2184L176.677 15.9333C176.87 16.5271 177.423 16.9291 178.048 16.9291L190.365 16.9291C191.762 16.9291 192.342 18.7156 191.213 19.5362L181.247 26.7764C180.742 27.1434 180.531 27.7939 180.724 28.3877L184.53 40.1025C184.962 41.4303 183.442 42.5344 182.312 41.7138L172.347 34.4736C171.842 34.1066 171.158 34.1066 170.653 34.4736L160.688 41.7138C159.558 42.5344 158.038 41.4303 158.47 40.1025L162.276 28.3877C162.469 27.7939 162.258 27.1434 161.753 26.7764L151.787 19.5362C150.658 18.7156 151.238 16.9291 152.635 16.9291L164.952 16.9291C165.577 16.9291 166.13 16.5271 166.323 15.9333L170.129 4.2184Z" fill="#EA760C"/>
<path id="Star 12" d="M219.129 4.2184C219.561 2.89063 221.439 2.89063 221.871 4.2184L225.677 15.9333C225.87 16.5271 226.423 16.9291 227.048 16.9291L239.365 16.9291C240.762 16.9291 241.342 18.7156 240.213 19.5362L230.247 26.7764C229.742 27.1434 229.531 27.7939 229.724 28.3877L233.53 40.1025C233.962 41.4303 232.442 42.5344 231.312 41.7138L221.347 34.4736C220.842 34.1066 220.158 34.1066 219.653 34.4736L209.688 41.7138C208.558 42.5344 207.038 41.4303 207.47 40.1025L211.276 28.3877C211.469 27.7939 211.258 27.1434 210.753 26.7764L200.787 19.5362C199.658 18.7156 200.238 16.9291 201.635 16.9291L213.952 16.9291C214.577 16.9291 215.13 16.5271 215.323 15.9333L219.129 4.2184Z" fill="#EA760C"/>
</g>
</svg>
