<svg width="40" height="34" viewBox="0 0 40 34" fill="none" xmlns="http://www.w3.org/2000/svg">
<g id="Group">
<g id="Group_2">
<path id="Vector" fill-rule="evenodd" clip-rule="evenodd" d="M9.97476 0L11.9521 7.2033L0.0966874 6.38712C0.062355 6.38712 0.0343324 6.30008 0 6.30268L9.97476 0Z" fill="#FBB713"/>
<path id="Vector_2" fill-rule="evenodd" clip-rule="evenodd" d="M40.0002 6.55581H28.1177L30.0507 0L40.0002 6.55581Z" fill="#FBB713"/>
<path id="Vector_3" fill-rule="evenodd" clip-rule="evenodd" d="M28.073 7.2033H11.952L9.97461 0H30.0503L28.073 7.2033Z" fill="#FBB713"/>
</g>
<path id="Vector_4" opacity="0.2" fill-rule="evenodd" clip-rule="evenodd" d="M28.073 7.2033H11.952L9.97461 0H30.0503L28.073 7.2033Z" fill="black"/>
<path id="Vector_5" fill-rule="evenodd" clip-rule="evenodd" d="M28.1174 6.5559L20.1596 33.6074L11.9797 6.38721L28.1174 6.5559Z" fill="#FBB713"/>
<path id="Vector_6" fill-rule="evenodd" clip-rule="evenodd" d="M11.9798 6.38721L20.1596 33.6074L0.0966797 6.38721H11.9798Z" fill="#FBB713"/>
<path id="Vector_7" opacity="0.35" fill-rule="evenodd" clip-rule="evenodd" d="M11.9798 6.38721L20.1596 33.6074L0.0966797 6.38721H11.9798Z" fill="black"/>
<path id="Vector_8" fill-rule="evenodd" clip-rule="evenodd" d="M28.1175 6.55591H40.0001L20.1597 33.6074L28.1175 6.55591Z" fill="#FBB713"/>
<path id="Vector_9" opacity="0.1" fill-rule="evenodd" clip-rule="evenodd" d="M28.1175 6.55591H40.0001L20.1597 33.6074L28.1175 6.55591Z" fill="black"/>
</g>
</svg>
